<svg width="152" height="168" viewBox="0 0 152 168" fill="none" xmlns="http://www.w3.org/2000/svg">
<path d="M72.3094 48.3018V90.3396H63.9247V82.0205C63.9247 82.0205 41.0144 81.9796 29.6738 82.0369C25.3832 82.0532 21.7805 86.0572 21.8296 90.5361C21.8787 95.0724 25.5716 98.8061 30.1078 98.8143C31.9174 98.8143 71.9491 98.8225 72.3094 98.8225V107.256C72.3094 107.256 33.4813 107.305 32.1302 107.305C24.1223 107.305 18.0876 104.53 14.8861 97.2095C11.7172 89.9712 13.3631 83.347 19.0047 77.7709C12.3068 71.7198 12.3477 62.893 15.1563 57.6363C18.3251 51.6917 23.3116 48.3673 30.1323 48.3346C43.9866 48.2609 72.3176 48.31 72.3176 48.31L72.3094 48.3018ZM63.8756 56.7192H63.0404C52.2485 56.7192 41.4565 56.7192 30.6646 56.7192C25.6043 56.7192 21.8214 60.3302 21.8214 65.1366C21.8214 69.9594 25.5797 73.5376 30.6564 73.5376C41.4483 73.5376 63.8756 73.5376 63.8756 73.5376V56.7192Z" fill="white"/>
<path d="M137.847 107.174H129.438C129.389 103.932 129.012 100.739 127.677 97.7909C123.313 88.1371 115.968 82.5201 105.242 82.0124C99.3384 81.734 93.4184 81.9633 87.4001 81.9633V107.158H78.9663V65.1612H87.351V73.5295C87.351 73.5295 109.958 73.5622 120.955 73.5131C125.549 73.4967 128.947 70.3034 129.389 65.7753C129.79 61.6485 126.941 57.7837 122.789 56.8912C121.954 56.7111 121.07 56.6947 120.21 56.6947C106.847 56.6865 79.3757 56.6947 78.9581 56.6947V48.2937C79.3184 48.2937 106.953 48.2937 120.431 48.2937C129.119 48.2937 136.185 53.9435 137.593 61.9924C139.092 70.5654 134.457 78.2786 126.023 81.2427C125.983 81.2591 125.852 81.3 125.786 81.3246C133.63 88.1207 137.823 96.6855 137.839 107.174H137.847Z" fill="white"/>
<path d="M70.2295 109.303C69.2469 109.303 67.9614 109.303 66.4548 109.303L49.9393 125.819L68.3462 144.226L86.7531 125.819L70.2295 109.295V109.303Z" fill="#77AADD"/>
<path d="M76.9193 68.6165V63.114H89.398V71.4823C95.2197 71.4823 112.014 71.4987 120.947 71.4659C124.435 71.4496 127.006 69.0832 127.35 65.5705C127.653 62.4836 125.458 59.5522 122.355 58.889C121.716 58.7498 120.971 58.7416 120.202 58.7416C107.567 58.7334 82.3234 58.7416 79.2529 58.7416H76.9029V46.2465H120.423C129.397 46.2465 136.799 51.6589 139.124 59.6341L151.136 47.6221L103.539 0L57.3005 46.2383C65.6115 46.2383 72.1865 46.2547 72.3176 46.2547H74.3646V66.0536L76.9275 68.6165H76.9193Z" fill="#77AADD"/>
<path d="M33.4151 121.64L16.3118 138.744L33.4151 155.847L50.5184 138.744L33.4151 121.64Z" fill="#AABBCC"/>
<path d="M68.2105 127.206L48.05 147.367L68.2105 167.527L88.3707 147.367L68.2105 127.206Z" fill="#7799BB"/>
<path d="M120.629 105.62L99.7565 126.492L120.629 147.365L141.501 126.492L120.629 105.62Z" fill="#7799BB"/>
<path d="M104.504 137.4L91.4537 150.451L104.504 163.501L117.555 150.451L104.504 137.4Z" fill="#AABBCC"/>
<path d="M36.1237 83.7317H36.1178V83.7373L36.1237 83.7317Z" fill="#002B64"/>
<path d="M13.3385 56.6699C16.9412 49.9147 22.7384 46.3201 30.1159 46.2874C42.0378 46.2219 64.9482 46.2546 70.8764 46.2628L36.1178 11.4961L0 47.6139L12.102 59.7159C12.4296 58.6351 12.839 57.6034 13.3385 56.6617V56.6699Z" fill="#7799BB"/>
<path d="M30.6727 58.7744C26.7342 58.7744 23.8766 61.4519 23.8766 65.1448C23.8766 66.9134 24.5398 68.5183 25.7517 69.6728C26.9881 70.8519 28.7321 71.4988 30.6645 71.5069C35.3154 71.5069 42.1197 71.5069 48.3591 71.5069L61.0834 58.7826H53.796C50.7091 58.7826 47.6221 58.7826 44.5352 58.7826C39.9171 58.7826 35.2908 58.7826 30.6727 58.7826V58.7744Z" fill="#7799BB"/>
<path d="M29.682 84.0757C28.5275 84.0757 27.3975 84.5015 26.4149 85.2712L25.2932 86.393C24.3679 87.5721 23.852 89.0377 23.8684 90.5116C23.9094 93.9506 26.7015 96.7591 30.0996 96.7673H42.9795L30.2879 84.0839C30.0832 84.0839 29.8785 84.0839 29.6738 84.0839L29.682 84.0757Z" fill="#7799BB"/>
<path d="M61.8776 84.0593C58.1438 84.0593 49.8738 84.0429 41.9723 84.0511L39.2047 86.8187L49.1533 96.7673H55.3517L61.8776 90.2413V84.0675V84.0593Z" fill="#AABBCC"/>
<path d="M32.122 109.344C22.7794 109.344 16.5973 105.782 13.2156 98.4705L0 111.686L28.9532 140.639L57.9064 111.686L55.54 109.32C44.8545 109.336 32.8671 109.344 32.1302 109.344H32.122Z" fill="#7799BB"/>
<path d="M130.92 81.1689C130.461 81.4555 129.978 81.7257 129.487 81.9795C136.226 88.7593 139.706 97.0129 139.878 106.536L148.082 98.3312L130.92 81.1689Z" fill="#AABBCC"/>
<path d="M127.415 109.221L127.383 107.207C127.325 103.572 126.842 100.935 125.81 98.6423C121.643 89.4225 114.691 84.5178 105.144 84.0593C102.376 83.9283 99.6249 83.9119 96.8163 83.9283L89.447 91.2976V105.357L115.248 131.157L137.184 109.221H127.415Z" fill="#AABBCC"/>
</svg>
