<svg width="140" height="80" viewBox="0 0 140 80" fill="none" xmlns="http://www.w3.org/2000/svg">
<path d="M67.0803 33.5401C67.0803 15.0103 52.0549 0 33.5401 0C15.0254 0 0 15.0103 0 33.5401C0 49.6635 11.3856 63.1246 26.5463 66.3433C22.6509 75.4578 16.6347 80 16.6347 80C16.6347 80 37.1047 78.2854 51.709 65.6665C63.6811 55.3337 67.0652 43.0457 67.0652 33.5401H67.0803Z" fill="white"/>
<path d="M139.169 33.5401C139.169 15.0254 124.159 0 105.629 0C87.0992 0 72.0888 15.0103 72.0888 33.5401C72.0888 49.6635 83.4744 63.1246 98.6352 66.3433C94.7397 75.4578 88.7235 80 88.7235 80C88.7235 80 109.194 78.2854 123.798 65.6665C135.77 55.3337 139.154 43.0457 139.154 33.5401H139.169Z" fill="white"/>
</svg>
